<svg xmlns="http://www.w3.org/2000/svg" xmlns:xlink="http://www.w3.org/1999/xlink" width="500" zoomAndPan="magnify" viewBox="0 0 375 374.999991" height="500" preserveAspectRatio="xMidYMid meet" version="1.0"><defs><filter x="0%" y="0%" width="100%" height="100%" id="82fcf0c3d7"><feColorMatrix values="0 0 0 0 1 0 0 0 0 1 0 0 0 0 1 0 0 0 1 0" color-interpolation-filters="sRGB"/></filter><mask id="4af159a38d"><g filter="url(#82fcf0c3d7)"><rect x="-37.5" width="450" fill="#000000" y="-37.499999" height="449.999989" fill-opacity="0.87"/></g></mask><clipPath id="8d6f9caf7d"><path d="M 9 9 L 111 9 L 111 177 L 9 177 Z M 9 9 " clip-rule="nonzero"/></clipPath><clipPath id="f87f8968e8"><path d="M 57.707031 0.664062 L 119.398438 22.3125 L 62.230469 185.210938 L 0.542969 163.5625 Z M 57.707031 0.664062 " clip-rule="nonzero"/></clipPath><clipPath id="971e06adbc"><path d="M 88.550781 11.488281 C 96.734375 14.359375 103.4375 20.363281 107.191406 28.175781 C 110.945312 35.992188 111.441406 44.976562 108.574219 53.15625 L 73.074219 154.316406 C 70.203125 162.496094 64.199219 169.199219 56.386719 172.953125 C 48.570312 176.710938 39.585938 177.207031 31.40625 174.335938 C 23.222656 171.464844 16.519531 165.460938 12.765625 157.648438 C 9.011719 149.832031 8.515625 140.847656 11.382812 132.667969 L 46.882812 31.507812 C 49.753906 23.328125 55.757812 16.625 63.570312 12.871094 C 71.386719 9.113281 80.371094 8.617188 88.550781 11.488281 Z M 88.550781 11.488281 " clip-rule="nonzero"/></clipPath><clipPath id="5d4876a612"><path d="M 0 0 L 102 0 L 102 168 L 0 168 Z M 0 0 " clip-rule="nonzero"/></clipPath><clipPath id="6c095ac84d"><path d="M 48.707031 -8.335938 L 110.398438 13.3125 L 53.230469 176.210938 L -8.457031 154.5625 Z M 48.707031 -8.335938 " clip-rule="nonzero"/></clipPath><clipPath id="601f231202"><path d="M 79.550781 2.488281 C 87.734375 5.359375 94.4375 11.363281 98.191406 19.175781 C 101.945312 26.992188 102.441406 35.976562 99.574219 44.15625 L 64.074219 145.316406 C 61.203125 153.496094 55.199219 160.199219 47.386719 163.953125 C 39.570312 167.710938 30.585938 168.207031 22.40625 165.335938 C 14.222656 162.464844 7.519531 156.460938 3.765625 148.648438 C 0.0117188 140.832031 -0.484375 131.847656 2.382812 123.667969 L 37.882812 22.507812 C 40.753906 14.328125 46.757812 7.625 54.570312 3.871094 C 62.386719 0.113281 71.371094 -0.382812 79.550781 2.488281 Z M 79.550781 2.488281 " clip-rule="nonzero"/></clipPath><clipPath id="bb6ffea6b5"><rect x="0" width="102" y="0" height="168"/></clipPath><clipPath id="55610922e6"><rect x="0" width="120" y="0" height="186"/></clipPath><mask id="48355e75e8"><g filter="url(#82fcf0c3d7)"><rect x="-37.5" width="450" fill="#000000" y="-37.499999" height="449.999989" fill-opacity="0.67"/></g></mask><clipPath id="d8a4978ef0"><path d="M 14 14 L 156 14 L 156 156 L 14 156 Z M 14 14 " clip-rule="nonzero"/></clipPath><clipPath id="ddccedcb9b"><path d="M 123.074219 0.839844 L 169.300781 47.066406 L 47.230469 169.136719 L 1 122.910156 Z M 123.074219 0.839844 " clip-rule="nonzero"/></clipPath><clipPath id="1a8ad3abb9"><path d="M 146.1875 23.953125 C 152.316406 30.082031 155.761719 38.398438 155.761719 47.066406 C 155.761719 55.734375 152.316406 64.050781 146.1875 70.179688 L 70.382812 145.988281 C 64.25 152.117188 55.9375 155.5625 47.269531 155.5625 C 38.597656 155.5625 30.285156 152.117188 24.152344 145.988281 C 18.023438 139.855469 14.578125 131.542969 14.578125 122.871094 C 14.578125 114.203125 18.023438 105.890625 24.152344 99.757812 L 99.960938 23.953125 C 106.089844 17.824219 114.402344 14.378906 123.074219 14.378906 C 131.742188 14.378906 140.058594 17.824219 146.1875 23.953125 Z M 146.1875 23.953125 " clip-rule="nonzero"/></clipPath><clipPath id="5370439eb5"><path d="M 0.398438 0.160156 L 142 0.160156 L 142 141.761719 L 0.398438 141.761719 Z M 0.398438 0.160156 " clip-rule="nonzero"/></clipPath><clipPath id="a845d38720"><path d="M 109.074219 -13.160156 L 155.300781 33.066406 L 33.230469 155.136719 L -13 108.910156 Z M 109.074219 -13.160156 " clip-rule="nonzero"/></clipPath><clipPath id="a850658b07"><path d="M 132.1875 9.953125 C 138.316406 16.082031 141.761719 24.398438 141.761719 33.066406 C 141.761719 41.734375 138.316406 50.050781 132.1875 56.179688 L 56.382812 131.988281 C 50.25 138.117188 41.9375 141.5625 33.269531 141.5625 C 24.597656 141.5625 16.285156 138.117188 10.152344 131.988281 C 4.023438 125.855469 0.578125 117.542969 0.578125 108.871094 C 0.578125 100.203125 4.023438 91.890625 10.152344 85.757812 L 85.960938 9.953125 C 92.089844 3.824219 100.402344 0.378906 109.074219 0.378906 C 117.742188 0.378906 126.058594 3.824219 132.1875 9.953125 Z M 132.1875 9.953125 " clip-rule="nonzero"/></clipPath><clipPath id="a948a1c61d"><rect x="0" width="142" y="0" height="142"/></clipPath><clipPath id="7de0750eeb"><rect x="0" width="170" y="0" height="170"/></clipPath><mask id="2ae6787c29"><g filter="url(#82fcf0c3d7)"><rect x="-37.5" width="450" fill="#000000" y="-37.499999" height="449.999989" fill-opacity="0.37"/></g></mask><clipPath id="c23baba155"><path d="M 5 5 L 177 5 L 177 89 L 5 89 Z M 5 5 " clip-rule="nonzero"/></clipPath><clipPath id="0222de6b84"><path d="M 170.390625 0.722656 L 181.148438 65.207031 L 10.867188 93.613281 L 0.109375 29.125 Z M 170.390625 0.722656 " clip-rule="nonzero"/></clipPath><clipPath id="0df6948eb7"><path d="M 175.769531 32.964844 C 177.195312 41.515625 175.167969 50.285156 170.128906 57.339844 C 165.089844 64.394531 157.457031 69.160156 148.90625 70.585938 L 43.160156 88.226562 C 34.609375 89.652344 25.839844 87.621094 18.785156 82.585938 C 11.730469 77.546875 6.964844 69.910156 5.539062 61.359375 C 4.113281 52.808594 6.140625 44.042969 11.179688 36.984375 C 16.21875 29.929688 23.851562 25.164062 32.402344 23.738281 L 138.148438 6.101562 C 146.699219 4.671875 155.46875 6.703125 162.523438 11.742188 C 169.578125 16.777344 174.34375 24.414062 175.769531 32.964844 Z M 175.769531 32.964844 " clip-rule="nonzero"/></clipPath><clipPath id="69d368434e"><path d="M 0 0 L 172 0 L 172 84 L 0 84 Z M 0 0 " clip-rule="nonzero"/></clipPath><clipPath id="66eb5b2367"><path d="M 165.390625 -4.277344 L 176.148438 60.207031 L 5.867188 88.613281 L -4.890625 24.125 Z M 165.390625 -4.277344 " clip-rule="nonzero"/></clipPath><clipPath id="66ad9b356a"><path d="M 170.769531 27.964844 C 172.195312 36.515625 170.167969 45.285156 165.128906 52.339844 C 160.089844 59.394531 152.457031 64.160156 143.90625 65.585938 L 38.160156 83.226562 C 29.609375 84.652344 20.839844 82.621094 13.785156 77.585938 C 6.730469 72.546875 1.964844 64.910156 0.539062 56.359375 C -0.886719 47.808594 1.140625 39.042969 6.179688 31.984375 C 11.21875 24.929688 18.851562 20.164062 27.402344 18.738281 L 133.148438 1.101562 C 141.699219 -0.328125 150.46875 1.703125 157.523438 6.742188 C 164.578125 11.777344 169.34375 19.414062 170.769531 27.964844 Z M 170.769531 27.964844 " clip-rule="nonzero"/></clipPath><clipPath id="91453185d7"><rect x="0" width="172" y="0" height="84"/></clipPath><clipPath id="5fae8381b7"><rect x="0" width="182" y="0" height="94"/></clipPath><clipPath id="d65fc84c9d"><path d="M 105.414062 149.484375 L 272.261719 149.484375 L 272.261719 316.335938 L 105.414062 316.335938 Z M 105.414062 149.484375 " clip-rule="nonzero"/></clipPath><clipPath id="874241aeeb"><path d="M 188.839844 149.484375 C 142.765625 149.484375 105.414062 186.835938 105.414062 232.910156 C 105.414062 278.984375 142.765625 316.335938 188.839844 316.335938 C 234.914062 316.335938 272.261719 278.984375 272.261719 232.910156 C 272.261719 186.835938 234.914062 149.484375 188.839844 149.484375 Z M 188.839844 149.484375 " clip-rule="nonzero"/></clipPath><clipPath id="88f9ed471c"><path d="M 0.414062 0.484375 L 167.261719 0.484375 L 167.261719 167.335938 L 0.414062 167.335938 Z M 0.414062 0.484375 " clip-rule="nonzero"/></clipPath><clipPath id="282e55fc30"><path d="M 83.839844 0.484375 C 37.765625 0.484375 0.414062 37.835938 0.414062 83.910156 C 0.414062 129.984375 37.765625 167.335938 83.839844 167.335938 C 129.914062 167.335938 167.261719 129.984375 167.261719 83.910156 C 167.261719 37.835938 129.914062 0.484375 83.839844 0.484375 Z M 83.839844 0.484375 " clip-rule="nonzero"/></clipPath><clipPath id="21647a91e0"><rect x="0" width="168" y="0" height="168"/></clipPath><clipPath id="1a7c1c4d13"><path d="M 92.476562 72.800781 L 157.855469 72.800781 L 157.855469 245.4375 L 92.476562 245.4375 Z M 92.476562 72.800781 " clip-rule="nonzero"/></clipPath><clipPath id="95c7f2623d"><path d="M 125.164062 72.800781 C 133.835938 72.800781 142.148438 76.242188 148.28125 82.375 C 154.410156 88.503906 157.855469 96.820312 157.855469 105.488281 L 157.855469 212.695312 C 157.855469 221.363281 154.410156 229.679688 148.28125 235.808594 C 142.148438 241.9375 133.835938 245.382812 125.164062 245.382812 C 116.496094 245.382812 108.183594 241.9375 102.050781 235.808594 C 95.921875 229.679688 92.476562 221.363281 92.476562 212.695312 L 92.476562 105.488281 C 92.476562 96.820312 95.921875 88.503906 102.050781 82.375 C 108.183594 76.242188 116.496094 72.800781 125.164062 72.800781 Z M 125.164062 72.800781 " clip-rule="nonzero"/></clipPath><clipPath id="02e01d06b7"><path d="M 0.476562 0.800781 L 65.855469 0.800781 L 65.855469 173.4375 L 0.476562 173.4375 Z M 0.476562 0.800781 " clip-rule="nonzero"/></clipPath><clipPath id="e2fd029915"><path d="M 33.164062 0.800781 C 41.835938 0.800781 50.148438 4.242188 56.28125 10.375 C 62.410156 16.503906 65.855469 24.820312 65.855469 33.488281 L 65.855469 140.695312 C 65.855469 149.363281 62.410156 157.679688 56.28125 163.808594 C 50.148438 169.9375 41.835938 173.382812 33.164062 173.382812 C 24.496094 173.382812 16.183594 169.9375 10.050781 163.808594 C 3.921875 157.679688 0.476562 149.363281 0.476562 140.695312 L 0.476562 33.488281 C 0.476562 24.820312 3.921875 16.503906 10.050781 10.375 C 16.183594 4.242188 24.496094 0.800781 33.164062 0.800781 Z M 33.164062 0.800781 " clip-rule="nonzero"/></clipPath><clipPath id="461bc38389"><rect x="0" width="66" y="0" height="174"/></clipPath><clipPath id="7c21969808"><path d="M 27 179 L 184 179 L 184 302 L 27 302 Z M 27 179 " clip-rule="nonzero"/></clipPath><clipPath id="098db7f2e3"><path d="M 14.84375 223.179688 L 49.289062 167.613281 L 196.023438 258.570312 L 161.578125 314.136719 Z M 14.84375 223.179688 " clip-rule="nonzero"/></clipPath><clipPath id="846d6fc7f6"><path d="M 32.066406 195.398438 C 36.636719 188.027344 43.941406 182.777344 52.382812 180.796875 C 60.824219 178.816406 69.703125 180.269531 77.074219 184.835938 L 168.191406 241.316406 C 175.5625 245.886719 180.8125 253.195312 182.792969 261.632812 C 184.777344 270.074219 183.320312 278.957031 178.753906 286.324219 C 174.1875 293.691406 166.878906 298.945312 158.4375 300.925781 C 150 302.90625 141.117188 301.453125 133.75 296.886719 L 42.628906 240.402344 C 35.261719 235.835938 30.007812 228.527344 28.027344 220.089844 C 26.046875 211.648438 27.5 202.765625 32.066406 195.398438 Z M 32.066406 195.398438 " clip-rule="nonzero"/></clipPath><clipPath id="de6afd86ac"><path d="M 0 0 L 157 0 L 157 123 L 0 123 Z M 0 0 " clip-rule="nonzero"/></clipPath><clipPath id="7c77eece7b"><path d="M -12.15625 44.179688 L 22.289062 -11.386719 L 169.023438 79.570312 L 134.578125 135.136719 Z M -12.15625 44.179688 " clip-rule="nonzero"/></clipPath><clipPath id="003f2ab7b7"><path d="M 5.066406 16.398438 C 9.636719 9.027344 16.941406 3.777344 25.382812 1.796875 C 33.824219 -0.183594 42.703125 1.269531 50.074219 5.835938 L 141.191406 62.316406 C 148.5625 66.886719 153.8125 74.195312 155.792969 82.632812 C 157.777344 91.074219 156.320312 99.957031 151.753906 107.324219 C 147.1875 114.691406 139.878906 119.945312 131.4375 121.925781 C 123 123.90625 114.117188 122.453125 106.75 117.886719 L 15.628906 61.402344 C 8.261719 56.835938 3.007812 49.527344 1.027344 41.089844 C -0.953125 32.648438 0.5 23.765625 5.066406 16.398438 Z M 5.066406 16.398438 " clip-rule="nonzero"/></clipPath><clipPath id="3a66358e6b"><rect x="0" width="157" y="0" height="123"/></clipPath><clipPath id="6a44e5e205"><path d="M 147.195312 232.910156 L 230.484375 232.910156 L 230.484375 284.164062 L 147.195312 284.164062 Z M 147.195312 232.910156 " clip-rule="nonzero"/></clipPath><clipPath id="1018d5c34b"><path d="M 174.972656 281.761719 C 179.242188 283.210938 184.097656 284.164062 188.859375 284.164062 C 193.625 284.164062 198.210938 283.347656 202.433594 281.898438 C 202.523438 281.851562 202.613281 281.851562 202.703125 281.804688 C 218.570312 275.996094 230.257812 260.660156 230.484375 243.875 L 230.484375 238.394531 C 230.484375 235.367188 228.027344 232.910156 225 232.910156 L 152.671875 232.910156 C 151.21875 232.910156 149.824219 233.488281 148.796875 234.515625 C 147.769531 235.542969 147.195312 236.9375 147.195312 238.390625 L 147.195312 243.867188 C 147.417969 260.75 158.925781 276.089844 174.972656 281.761719 Z M 174.972656 281.761719 " clip-rule="nonzero"/></clipPath><clipPath id="69359adcd0"><path d="M 0.195312 0.910156 L 83.484375 0.910156 L 83.484375 52.164062 L 0.195312 52.164062 Z M 0.195312 0.910156 " clip-rule="nonzero"/></clipPath><clipPath id="52fb22c210"><path d="M 27.972656 49.761719 C 32.242188 51.210938 37.097656 52.164062 41.859375 52.164062 C 46.625 52.164062 51.210938 51.347656 55.433594 49.898438 C 55.523438 49.851562 55.613281 49.851562 55.703125 49.804688 C 71.570312 43.996094 83.257812 28.660156 83.484375 11.875 L 83.484375 6.394531 C 83.484375 3.367188 81.027344 0.910156 78 0.910156 L 5.671875 0.910156 C 4.21875 0.910156 2.824219 1.488281 1.796875 2.515625 C 0.769531 3.542969 0.195312 4.9375 0.195312 6.390625 L 0.195312 11.867188 C 0.417969 28.75 11.925781 44.089844 27.972656 49.761719 Z M 27.972656 49.761719 " clip-rule="nonzero"/></clipPath><clipPath id="ce1ea10adc"><rect x="0" width="84" y="0" height="53"/></clipPath><clipPath id="922afd6080"><path d="M 159.113281 191.195312 L 175.371094 191.195312 L 175.371094 219.960938 L 159.113281 219.960938 Z M 159.113281 191.195312 " clip-rule="nonzero"/></clipPath><clipPath id="f3a22aebbf"><path d="M 167.242188 191.195312 C 162.753906 191.195312 159.113281 197.632812 159.113281 205.574219 C 159.113281 213.519531 162.753906 219.957031 167.242188 219.957031 C 171.730469 219.957031 175.371094 213.519531 175.371094 205.574219 C 175.371094 197.632812 171.730469 191.195312 167.242188 191.195312 Z M 167.242188 191.195312 " clip-rule="nonzero"/></clipPath><clipPath id="769e7c363c"><path d="M 0.113281 0.195312 L 16.371094 0.195312 L 16.371094 28.960938 L 0.113281 28.960938 Z M 0.113281 0.195312 " clip-rule="nonzero"/></clipPath><clipPath id="3ff1703ad9"><path d="M 8.242188 0.195312 C 3.753906 0.195312 0.113281 6.632812 0.113281 14.574219 C 0.113281 22.519531 3.753906 28.957031 8.242188 28.957031 C 12.730469 28.957031 16.371094 22.519531 16.371094 14.574219 C 16.371094 6.632812 12.730469 0.195312 8.242188 0.195312 Z M 8.242188 0.195312 " clip-rule="nonzero"/></clipPath><clipPath id="cf362515f9"><rect x="0" width="17" y="0" height="29"/></clipPath><clipPath id="c04ebacd74"><path d="M 202.308594 191.195312 L 218.5625 191.195312 L 218.5625 219.960938 L 202.308594 219.960938 Z M 202.308594 191.195312 " clip-rule="nonzero"/></clipPath><clipPath id="5861f8b65b"><path d="M 210.433594 191.195312 C 205.945312 191.195312 202.308594 197.632812 202.308594 205.574219 C 202.308594 213.519531 205.945312 219.957031 210.433594 219.957031 C 214.925781 219.957031 218.5625 213.519531 218.5625 205.574219 C 218.5625 197.632812 214.925781 191.195312 210.433594 191.195312 Z M 210.433594 191.195312 " clip-rule="nonzero"/></clipPath><clipPath id="29c96813f8"><path d="M 0.308594 0.195312 L 16.5625 0.195312 L 16.5625 28.960938 L 0.308594 28.960938 Z M 0.308594 0.195312 " clip-rule="nonzero"/></clipPath><clipPath id="6eefaaaa69"><path d="M 8.433594 0.195312 C 3.945312 0.195312 0.308594 6.632812 0.308594 14.574219 C 0.308594 22.519531 3.945312 28.957031 8.433594 28.957031 C 12.925781 28.957031 16.5625 22.519531 16.5625 14.574219 C 16.5625 6.632812 12.925781 0.195312 8.433594 0.195312 Z M 8.433594 0.195312 " clip-rule="nonzero"/></clipPath><clipPath id="7b5f8b2e38"><rect x="0" width="17" y="0" height="29"/></clipPath></defs><rect x="-37.5" width="450" fill="#ffffff" y="-37.499999" height="449.999989" fill-opacity="1"/><rect x="-37.5" width="450" fill="#38b6ff" y="-37.499999" height="449.999989" fill-opacity="1"/><g mask="url(#4af159a38d)"><g transform="matrix(1, 0, 0, 1, 136, 58)"><g clip-path="url(#55610922e6)"><g clip-path="url(#8d6f9caf7d)"><g clip-path="url(#f87f8968e8)"><g clip-path="url(#971e06adbc)"><g transform="matrix(1, 0, 0, 1, 9, 9)"><g clip-path="url(#bb6ffea6b5)"><g clip-path="url(#5d4876a612)"><g clip-path="url(#6c095ac84d)"><g clip-path="url(#601f231202)"><path fill="#ffffff" d="M 48.707031 -8.335938 L 110.398438 13.3125 L 53.230469 176.210938 L -8.457031 154.5625 Z M 48.707031 -8.335938 " fill-opacity="1" fill-rule="nonzero"/></g></g></g></g></g></g></g></g></g></g></g><g mask="url(#48355e75e8)"><g transform="matrix(1, 0, 0, 1, 168, 96)"><g clip-path="url(#7de0750eeb)"><g clip-path="url(#d8a4978ef0)"><g clip-path="url(#ddccedcb9b)"><g clip-path="url(#1a8ad3abb9)"><g transform="matrix(1, 0, 0, 1, 14, 14)"><g clip-path="url(#a948a1c61d)"><g clip-path="url(#5370439eb5)"><g clip-path="url(#a845d38720)"><g clip-path="url(#a850658b07)"><path fill="#ffffff" d="M 109.074219 -13.160156 L 155.300781 33.066406 L 33.230469 155.136719 L -13 108.910156 Z M 109.074219 -13.160156 " fill-opacity="1" fill-rule="nonzero"/></g></g></g></g></g></g></g></g></g></g></g><g mask="url(#2ae6787c29)"><g transform="matrix(1, 0, 0, 1, 179, 196)"><g clip-path="url(#5fae8381b7)"><g clip-path="url(#c23baba155)"><g clip-path="url(#0222de6b84)"><g clip-path="url(#0df6948eb7)"><g transform="matrix(1, 0, 0, 1, 5, 5)"><g clip-path="url(#91453185d7)"><g clip-path="url(#69d368434e)"><g clip-path="url(#66eb5b2367)"><g clip-path="url(#66ad9b356a)"><path fill="#ffffff" d="M 165.390625 -4.277344 L 176.148438 60.207031 L 5.867188 88.613281 L -4.890625 24.125 Z M 165.390625 -4.277344 " fill-opacity="1" fill-rule="nonzero"/></g></g></g></g></g></g></g></g></g></g></g><g clip-path="url(#d65fc84c9d)"><g clip-path="url(#874241aeeb)"><g transform="matrix(1, 0, 0, 1, 105, 149)"><g clip-path="url(#21647a91e0)"><g clip-path="url(#88f9ed471c)"><g clip-path="url(#282e55fc30)"><path fill="#ffffff" d="M 0.414062 0.484375 L 167.261719 0.484375 L 167.261719 167.335938 L 0.414062 167.335938 Z M 0.414062 0.484375 " fill-opacity="1" fill-rule="nonzero"/></g></g></g></g></g></g><g clip-path="url(#1a7c1c4d13)"><g clip-path="url(#95c7f2623d)"><g transform="matrix(1, 0, 0, 1, 92, 72)"><g clip-path="url(#461bc38389)"><g clip-path="url(#02e01d06b7)"><g clip-path="url(#e2fd029915)"><path fill="#ffffff" d="M 0.476562 0.800781 L 65.855469 0.800781 L 65.855469 173.4375 L 0.476562 173.4375 Z M 0.476562 0.800781 " fill-opacity="1" fill-rule="nonzero"/></g></g></g></g></g></g><g clip-path="url(#7c21969808)"><g clip-path="url(#098db7f2e3)"><g clip-path="url(#846d6fc7f6)"><g transform="matrix(1, 0, 0, 1, 27, 179)"><g clip-path="url(#3a66358e6b)"><g clip-path="url(#de6afd86ac)"><g clip-path="url(#7c77eece7b)"><g clip-path="url(#003f2ab7b7)"><path fill="#ffffff" d="M -12.15625 44.179688 L 22.289062 -11.386719 L 169.023438 79.570312 L 134.578125 135.136719 Z M -12.15625 44.179688 " fill-opacity="1" fill-rule="nonzero"/></g></g></g></g></g></g></g></g><g clip-path="url(#6a44e5e205)"><g clip-path="url(#1018d5c34b)"><g transform="matrix(1, 0, 0, 1, 147, 232)"><g clip-path="url(#ce1ea10adc)"><g clip-path="url(#69359adcd0)"><g clip-path="url(#52fb22c210)"><path fill="#38b6ff" d="M 0.195312 0.910156 L 83.484375 0.910156 L 83.484375 52.164062 L 0.195312 52.164062 Z M 0.195312 0.910156 " fill-opacity="1" fill-rule="nonzero"/></g></g></g></g></g></g><g clip-path="url(#922afd6080)"><g clip-path="url(#f3a22aebbf)"><g transform="matrix(1, 0, 0, 1, 159, 191)"><g clip-path="url(#cf362515f9)"><g clip-path="url(#769e7c363c)"><g clip-path="url(#3ff1703ad9)"><path fill="#38b6ff" d="M 0.113281 0.195312 L 16.371094 0.195312 L 16.371094 28.960938 L 0.113281 28.960938 Z M 0.113281 0.195312 " fill-opacity="1" fill-rule="nonzero"/></g></g></g></g></g></g><g clip-path="url(#c04ebacd74)"><g clip-path="url(#5861f8b65b)"><g transform="matrix(1, 0, 0, 1, 202, 191)"><g clip-path="url(#7b5f8b2e38)"><g clip-path="url(#29c96813f8)"><g clip-path="url(#6eefaaaa69)"><path fill="#38b6ff" d="M 0.308594 0.195312 L 16.5625 0.195312 L 16.5625 28.960938 L 0.308594 28.960938 Z M 0.308594 0.195312 " fill-opacity="1" fill-rule="nonzero"/></g></g></g></g></g></g></svg>